# xmcd
#
# Track frame offsets:
#	182
#	10512
#	21392
#	31582
#	42132
#	55902
#	67225
#	82112
#	95862
#	107260
#	120952
#	134892
#	147672
#	159987
#	176102
#
# Disc length: 2515
#
# Revision: 2
# Processed by: cddbd v1.5.1PL0 Copyright (c) Steve Scherf et al.
# Submitted via: audiograbber 1.81.02
# Normalized: r1:DSETVAR1
#
DISCID=cd09d10f
DTITLE=Various Artist - O Blues, Where Art Thou?
DYEAR=1950
DGENRE=Blues
TTITLE0=Brownie McGhee and His Jook Black Busters - Key To The Highway - Brownie McGhee and His Jook Black Busters
TTITLE1=John Lee Hooker - Gonna Boogie - John Lee Hooker
TTITLE2=Brownie McGhee and Sonny Terry - Mean Old 'Frisco - Brownie McGhee and Sonny Terry
TTITLE3=Smokey Hogg - I Love You Baby - Smokey Hogg
TTITLE4=Sonny "Hootin'" Terry and His Night Owls - Cryin' Blues - Sonny "Hootin'" Terry and His Night Owls
TTITLE5=James Wayne - Junco Partner - James Wayne
TTITLE6=Brownie McGhee and Sonny Terry - Goin' Down Slow - Brownie McGhee and Sonny Terry
TTITLE7=Sam "Lighnin'" Hopkikns - Long Way From Texas - Sam "Lighnin'" Hopkikns
TTITLE8=Bob Gaddy and His Alley Cats - Bulldog Blues - Bob Gaddy and His Alley Cats
TTITLE9=Peppermint Harris - Please Tell Me Baby - Peppermint Harris
TTITLE10=John Lee Hooker - Bad Boy - John Lee Hooker
TTITLE11=Brownie McGhee and His Jook Black Busters - Ease My Worried Mind - Brownie McGhee and His Jook Black Busters
TTITLE12=L. C. Williams - So Sorry - L. C. Williams
TTITLE13=Ray Charles - I Found My Baby - Ray Charles
TTITLE14=Sam "Lightnin'" Hopkins - New York Boogie - Sam "Lightnin'" Hopkins
EXTD=The 'Original' Songs From "O Brother, Where Art Thou?"
EXTT0=
EXTT1=
EXTT2=
EXTT3=
EXTT4=
EXTT5=
EXTT6=
EXTT7=
EXTT8=
EXTT9=
EXTT10=
EXTT11=
EXTT12=
EXTT13=
EXTT14=
PLAYORDER=
